<svg width="24" height="22" viewBox="0 0 58 40" fill="none" xmlns="http://www.w3.org/2000/svg">
<path d="M56.854 5.19267L23.0258 39.0836C22.6881 39.422 22.2754 39.6851 21.8251 39.8167C21.5249 39.9107 21.2059 39.9671 20.887 39.9671C20.3241 39.9671 19.7612 39.8167 19.2922 39.516C19.0858 39.4032 18.8982 39.2716 18.7293 39.1212L18.0726 38.4633L11.5997 31.9784L3.92598 24.2716C3.92598 24.2716 3.92598 24.2716 3.90722 24.2528L3.13797 23.4821L0.886511 21.2077C-0.295504 20.0235 -0.295504 18.0874 0.886511 16.8844C2.06853 15.7002 4.00103 15.7002 5.2018 16.8844L7.86603 19.5724L7.92232 19.6288C8.03489 19.7227 8.14746 19.8167 8.26003 19.9107L16.3465 28.0498C16.3465 28.0498 16.3465 28.0498 16.3465 28.0686L16.4779 28.2002C16.703 29.0273 18.5229 35.3994 19.1984 36.9032L20.1552 31.922V31.8656V31.828V31.7152L20.174 31.3205C20.174 31.3205 19.2546 29.3656 19.1608 29.1776C18.9169 28.7641 19.1421 28.407 19.5736 28.407H20.9057H22.2941C22.7444 28.407 22.9508 28.7641 22.7069 29.1776C22.6131 29.3656 21.6937 31.3205 21.6937 31.3205L21.7125 31.546L21.7313 31.9032L21.75 32.0348L22.5943 36.6776L22.6318 36.9032C22.6506 36.8468 22.6694 36.7904 22.7069 36.734C23.4386 34.7979 24.9208 29.3468 25.2585 28.1814L52.5387 0.888158C53.7207 -0.296053 55.6532 -0.296053 56.854 0.888158C58.036 2.07237 58.036 4.00846 56.854 5.19267ZM20.9057 25.8694C25.5024 25.8694 29.2361 22.1288 29.2361 17.5235C29.2361 12.9182 25.5024 9.17763 20.9057 9.17763C16.309 9.17763 12.5753 12.9182 12.5753 17.5235C12.5753 22.1288 16.309 25.8694 20.9057 25.8694Z" fill="white"/>
</svg>
